<svg viewBox="0 0 64 64" xmlns="http://www.w3.org/2000/svg" fill="none">
  <rect width="64" height="64" fill="transparent"/>
  <!-- Голова врача -->
  <circle cx="32" cy="16" r="6" stroke="#00d9ff" stroke-width="2" fill="none"/>
  <!-- Медицинская шапка -->
  <rect x="26" y="9" width="12" height="4" rx="1" stroke="#00d9ff" stroke-width="1.5" fill="rgba(0, 217, 255, 0.2)"/>
  <line x1="26" y1="11" x2="38" y2="11" stroke="#00d9ff" stroke-width="1"/>
  <!-- Тело/белый халат -->
  <path d="M24 22C24 22 24 28 32 32C40 28 40 22 40 22" stroke="#00d9ff" stroke-width="2" fill="none"/>
  <rect x="26" y="32" width="12" height="14" stroke="#00d9ff" stroke-width="2" fill="none"/>
  <!-- Пуговица халата -->
  <circle cx="32" cy="28" r="1.5" fill="#00d9ff" opacity="0.5"/>
  <!-- Стетоскоп (дуга вокруг головы) -->
  <path d="M18 18C18 14 18 10 24 10" stroke="#00d9ff" stroke-width="2" fill="none" stroke-linecap="round"/>
  <path d="M46 18C46 14 46 10 40 10" stroke="#00d9ff" stroke-width="2" fill="none" stroke-linecap="round"/>
  <!-- Мембрана стетоскопа -->
  <circle cx="32" cy="38" r="3" stroke="#00d9ff" stroke-width="2" fill="none"/>
  <path d="M29 38H35M32 35V41" stroke="#00d9ff" stroke-width="1" opacity="0.6"/>
</svg>