<svg viewBox="0 0 64 64" xmlns="http://www.w3.org/2000/svg" fill="none">
  <rect width="64" height="64" fill="transparent"/>
  <!-- Голова 1 (слева) -->
  <circle cx="20" cy="22" r="8" stroke="#00d9ff" stroke-width="2" fill="none"/>
  <path d="M12 32C12 28 15 26 20 26C25 26 28 28 28 32V38H12V32Z" stroke="#00d9ff" stroke-width="2" fill="none"/>
  <!-- Голова 2 (справа) -->
  <circle cx="44" cy="22" r="8" stroke="#00d9ff" stroke-width="2" fill="none"/>
  <path d="M36 32C36 28 39 26 44 26C49 26 52 28 52 32V38H36V32Z" stroke="#00d9ff" stroke-width="2" fill="none"/>
  <!-- Стрелка/связь между ними с вопросом -->
  <line x1="28" y1="22" x2="36" y2="22" stroke="#00d9ff" stroke-width="2" stroke-linecap="round"/>
  <!-- Вопросительный знак в центре -->
  <text x="30" y="28" font-size="12" font-weight="bold" fill="#00d9ff">?</text>
  <!-- Восклицательный знак (опасность) -->
  <path d="M32 48L40 56H24Z" stroke="#00d9ff" stroke-width="2" fill="rgba(0, 217, 255, 0.05)"/>
  <line x1="32" y1="50" x2="32" y2="54" stroke="#00d9ff" stroke-width="2" stroke-linecap="round"/>
  <circle cx="32" cy="57" r="1.5" fill="#00d9ff"/>
</svg>